<svg xmlns="http://www.w3.org/2000/svg" version="1.1" xmlns:xlink="http://www.w3.org/1999/xlink" xmlns:svgjs="http://svgjs.dev/svgjs" width="308.7612359841165" height="304.915625" viewBox="0 0 2000 1999"><g transform="matrix(1,0,0,1,-0.431486880466764,-0.4312711370263287)"><svg viewBox="0 0 343 343" data-background-color="#282634" preserveAspectRatio="xMidYMid meet" height="1999" width="2000" xmlns="http://www.w3.org/2000/svg" xmlns:xlink="http://www.w3.org/1999/xlink"><g id="tight-bounds" transform="matrix(1,0,0,1,0.0740000000000407,0.07400000000001228)"><svg viewBox="0 0 342.85155851775386 342.85155851775386" height="342.85155851775386" width="342.85155851775386"><g><svg></svg></g><g><svg viewBox="0 0 342.85155851775386 342.85155851775386" height="342.85155851775386" width="342.85155851775386"><g><path d="M0 171.426c0-94.676 76.75-171.426 171.426-171.426 94.676 0 171.426 76.75 171.426 171.426 0 94.676-76.75 171.426-171.426 171.426-94.676 0-171.426-76.75-171.426-171.426zM171.426 338.588c92.321 0 167.162-74.841 167.162-167.162 0-92.321-74.841-167.162-167.162-167.163-92.321 0-167.162 74.841-167.163 167.163 0 92.321 74.841 167.162 167.163 167.162z" data-fill-palette-color="tertiary" fill="#ff4057" stroke="transparent"></path><ellipse rx="164.56874808852186" ry="164.56874808852186" cx="171.42577925887693" cy="171.42577925887693" fill="#ff4057" stroke="transparent" stroke-width="0" fill-opacity="1" data-fill-palette-color="tertiary"></ellipse></g><g transform="matrix(1,0,0,1,64.84655864529837,109.53886964895852)"><svg viewBox="0 0 213.1584412271571 123.77381921983681" height="123.77381921983681" width="213.1584412271571"><g><svg viewBox="0 0 213.1584412271571 123.77381921983681" height="123.77381921983681" width="213.1584412271571"><g><svg viewBox="0 0 213.1584412271571 123.77381921983681" height="123.77381921983681" width="213.1584412271571"><g transform="matrix(1,0,0,1,0,76.49718583721659)"><svg viewBox="0 0 213.1584412271571 47.27663338262021" height="47.27663338262021" width="213.1584412271571"><g id="textblocktransform"><svg viewBox="0 0 213.1584412271571 47.27663338262021" height="47.27663338262021" width="213.1584412271571" id="textblock"><g><svg viewBox="0 0 213.1584412271571 47.27663338262021" height="47.27663338262021" width="213.1584412271571"><g transform="matrix(1,0,0,1,0,0)"><svg width="213.1584412271571" viewBox="4.45 -36.5 167.49 37.15" height="47.27663338262021" data-palette-color="#282634"><path d="M37.75-5.7Q37.75-2.1 38.35-0.35L38.35-0.35Q37.3 0.55 36 0.55L36 0.55Q35.05 0.55 34.45-0.05 33.85-0.65 33.85-1.65L33.85-1.65 33.75-29.8 22.8-5.45Q21.6-5 20.6-5L20.6-5Q19.7-5 19-5.35L19-5.35Q13.35-16.05 7.2-29.65L7.2-29.65 7.25-5.7Q7.25-1.95 7.9-0.05L7.9-0.05Q7.2 0.55 6.25 0.55L6.25 0.55Q4.8 0.55 4.8-1.3L4.8-1.3 4.75-28.95Q4.75-32.5 4.45-34.5L4.45-34.5Q5.05-35.1 7.1-35.1L7.1-35.1Q8.45-35.1 9.2-34.3L9.2-34.3 13.35-25.55 21.4-8.85Q22.4-11.05 28.35-24.6L28.35-24.6Q29.85-28.15 30.95-30.65 32.05-33.15 32.75-34.7L32.75-34.7Q33.8-35.1 35.2-35.1L35.2-35.1Q36.15-35.1 36.88-34.75 37.6-34.4 37.65-33.9L37.65-33.9 37.75-5.7ZM68.95-3.35Q69.55-2.55 69.55-1.8L69.55-1.8Q69.55-0.75 68.75-0.13 67.95 0.5 66.55 0.5L66.55 0.5Q62.65 0.5 62.65-4.6L62.65-4.6 62.65-5.6Q61.6-2.65 59.4-1 57.2 0.65 54.25 0.65L54.25 0.65Q50.15 0.65 48.3-1.75 46.45-4.15 46.4-9.85L46.4-9.85 46.4-19.75Q46.4-23.2 45.75-25.15L45.75-25.15Q46.85-26.05 48.1-26.05L48.1-26.05Q49.1-26.05 49.72-25.45 50.35-24.85 50.35-23.8L50.35-23.8 50.4-10.35Q50.4-7.1 50.87-5.2 51.35-3.3 52.42-2.43 53.5-1.55 55.4-1.55L55.4-1.55Q57.1-1.55 58.67-2.78 60.25-4 61.27-6.68 62.3-9.35 62.3-13.45L62.3-13.45Q62.3-19.9 62.2-21.85 62.1-23.8 61.6-25.15L61.6-25.15Q62.65-26.05 63.9-26.05L63.9-26.05Q64.9-26.05 65.55-25.4 66.2-24.75 66.2-23.65L66.2-23.65 66.25-5.15Q66.25-3.75 66.57-3.18 66.9-2.6 67.65-2.6L67.65-2.6Q68.55-2.6 68.95-3.35L68.95-3.35ZM96.15-3.5Q96.7-2.9 96.7-2.05L96.7-2.05Q96.7-0.95 95.7-0.2 94.7 0.55 93.34 0.55L93.34 0.55Q92.09 0.55 91.07-0.2 90.05-0.95 89.45-2.35L89.45-2.35 85.15-10.85Q82.3-9.8 78.84-8.95L78.84-8.95Q78.84-4.4 78.95-3 79.05-1.6 79.55-0.35L79.55-0.35Q79.05 0.05 78.52 0.3 78 0.55 77.14 0.55L77.14 0.55Q75.89 0.55 75.42-0.08 74.95-0.7 74.95-1.85L74.95-1.85 74.89-34.3Q74.89-35.35 75.52-35.93 76.14-36.5 77.2-36.5L77.2-36.5Q78.59-36.5 79.5-35.6L79.5-35.6Q79.14-33.9 79.05-32.55 78.95-31.2 78.89-29.1L78.89-29.1 78.84-27.75 78.8-18.6Q79.95-22 82.55-24.03 85.15-26.05 88.7-26.05L88.7-26.05Q91.65-26.05 93.27-24.5 94.9-22.95 94.9-20.35L94.9-20.35Q94.9-17.5 92.95-15.35 91-13.2 87.95-11.8L87.95-11.8Q88.8-11.45 89.8-9.85L89.8-9.85 92.75-4.55Q93.34-3.6 93.72-3.23 94.09-2.85 94.75-2.85L94.75-2.85Q95.59-2.85 96.15-3.5L96.15-3.5ZM78.84-10.75Q84.2-12.3 87.52-14.48 90.84-16.65 90.84-20.1L90.84-20.1Q90.84-21.95 89.9-22.83 88.95-23.7 87.34-23.7L87.34-23.7Q84.84-23.7 82.92-22.03 81-20.35 79.92-17.43 78.84-14.5 78.84-10.75L78.84-10.75ZM120.44-6.45Q121.19-6.2 121.19-5.3L121.19-5.3Q121.19-4.8 120.89-3.95L120.89-3.95Q119.94-1.75 117.57-0.55 115.19 0.65 111.99 0.65L111.99 0.65Q106.49 0.65 103.39-2.78 100.29-6.2 100.29-12.55L100.29-12.55Q100.29-18.85 103.37-22.45 106.44-26.05 112.19-26.05L112.19-26.05Q116.34-26.05 118.84-24.18 121.34-22.3 121.34-18.85L121.34-18.85Q121.34-15.15 118.34-13.2 115.34-11.25 109.99-11.25L109.99-11.25Q107.04-11.25 104.59-11.6L104.59-11.6Q104.89-6.55 107.12-4.33 109.34-2.1 112.94-2.1L112.94-2.1Q115.69-2.1 117.69-3.23 119.69-4.35 120.44-6.45L120.44-6.45ZM112.04-24.25Q108.64-24.25 106.62-21.43 104.59-18.6 104.54-13.3L104.54-13.3Q106.94-13.1 108.44-13.05L108.44-13.05Q112.44-13.05 114.77-14.48 117.09-15.9 117.09-19.35L117.09-19.35Q117.09-22 115.64-23.13 114.19-24.25 112.04-24.25L112.04-24.25ZM134.84 0.65Q130.19 0.65 127.86-1.03 125.54-2.7 125.54-5.4L125.54-5.4Q125.54-6.65 126.14-7.43 126.74-8.2 128.04-8.2L128.04-8.2Q128.54-8.2 128.84-8.15L128.84-8.15Q128.69-7.55 128.69-6.95L128.69-6.95Q128.69-6.4 128.74-6.05L128.74-6.05Q128.84-3.85 130.56-2.55 132.29-1.25 135.19-1.25L135.19-1.25Q138.04-1.25 139.74-2.25 141.44-3.25 141.44-5.2L141.44-5.2Q141.44-7 140.14-8.05 138.84-9.1 136.04-10.35L136.04-10.35 134.44-11.1Q131.64-12.4 130.16-13.3 128.69-14.2 127.61-15.75 126.54-17.3 126.54-19.65L126.54-19.65Q126.54-22.9 129.09-24.5 131.64-26.1 135.54-26.1L135.54-26.1Q139.64-26.1 141.94-24.78 144.24-23.45 144.24-21.1L144.24-21.1Q144.24-19 142.39-18.8L142.39-18.8Q141.89-18.7 141.74-18.7L141.74-18.7Q141.44-18.7 140.94-18.8L140.94-18.8Q141.04-19.4 141.04-19.8L141.04-19.8Q141.04-20.45 140.89-20.9L140.89-20.9Q140.69-22.55 139.26-23.4 137.84-24.25 135.39-24.25L135.39-24.25Q133.14-24.25 131.69-23.43 130.24-22.6 130.24-20.8L130.24-20.8Q130.24-19.3 131.09-18.23 131.94-17.15 133.12-16.48 134.29-15.8 136.69-14.65L136.69-14.65 137.79-14.15Q140.24-13 141.72-12.13 143.19-11.25 144.22-9.85 145.24-8.45 145.24-6.5L145.24-6.5Q145.24-3.55 142.79-1.45 140.34 0.65 134.84 0.65L134.84 0.65ZM171.34-5.7Q171.34-2.1 171.94-0.35L171.94-0.35Q170.94 0.55 169.64 0.55L169.64 0.55Q168.64 0.55 168.01-0.05 167.39-0.65 167.39-1.65L167.39-1.65 167.34-15.15Q167.34-19.55 166.16-21.7 164.99-23.85 162.14-23.85L162.14-23.85Q160.39-23.85 158.76-22.63 157.14-21.4 156.11-18.75 155.09-16.1 155.09-12.05L155.09-12.05Q155.09-5.6 155.19-3.65 155.29-1.7 155.79-0.35L155.79-0.35Q154.74 0.55 153.49 0.55L153.49 0.55Q152.44 0.55 151.81-0.1 151.19-0.75 151.19-1.85L151.19-1.85 151.14-34.3Q151.14-35.4 151.74-35.95 152.34-36.5 153.39-36.5L153.39-36.5Q154.14-36.5 154.79-36.23 155.44-35.95 155.79-35.6L155.79-35.6Q155.39-34.35 155.26-32.63 155.14-30.9 155.09-27.8L155.09-27.8 155.04-20.25Q156.14-23 158.29-24.53 160.44-26.05 163.29-26.05L163.29-26.05Q167.39-26.05 169.34-23.43 171.29-20.8 171.29-15.65L171.29-15.65 171.34-5.7Z" opacity="1" transform="matrix(1,0,0,1,0,0)" fill="#282634" class="wordmark-text-0" data-fill-palette-color="quaternary" id="text-0"></path></svg></g></svg></g></svg></g></svg></g><g transform="matrix(1,0,0,1,41.40711216211041,0)"><svg viewBox="0 0 130.3442169029363 65.33630733478114" height="65.33630733478114" width="130.3442169029363"><g><svg xmlns="http://www.w3.org/2000/svg" xmlns:xlink="http://www.w3.org/1999/xlink" xml:space="preserve" style="shape-rendering:geometricPrecision;text-rendering:geometricPrecision;image-rendering:optimizeQuality;" viewBox="0 -0.00004110933377126161 14.727 7.382052084718504" x="0" y="0" fill-rule="evenodd" clip-rule="evenodd" id="icon-0" width="130.3442169029363" height="65.33630733478114" class="icon-icon-0" data-fill-palette-color="quaternary"><g fill="#282634" data-fill-palette-color="quaternary"><path class="" d="M1.757 3.091C1.444 3.535 1.46 4.421 1.34 5.041 1.187 5.825 0.63 6.244 0 6.575 0.188 5.805 0.348 5.033 0.412 4.262 0.49 3.31 0.352 3.372 1.179 2.687 2.338 1.727 4.218 0.946 7.027 0.397 9.483-0.009 12.077-0.056 14.727 0.046 13.838 1.855 10.995 2.006 7.526 1.627 5.715 1.647 4.03 1.139 1.757 3.091M10.087 5.872C6.192 7.911 2.285 3.588 0.922 6.56 3.026 4.729 6.002 9.743 10.087 5.872M12.576 3.325C8.086 6.045 3.073 2.534 1.669 5.185 5.081 3.95 9.434 7.937 12.576 3.324M13.41 1.847C9.466 3.607 3.367 0.445 1.845 4.087 4.95 2.277 10.29 5.523 13.41 1.846" fill="#282634" data-fill-palette-color="quaternary"></path></g></svg></g></svg></g><g></g></svg></g></svg></g></svg></g></svg></g><defs></defs></svg><rect width="342.85155851775386" height="342.85155851775386" fill="none" stroke="none" visibility="hidden"></rect></g></svg></g></svg>